<svg width="144" height="19" viewBox="0 0 144 19" fill="none" xmlns="http://www.w3.org/2000/svg">
<path fill-rule="evenodd" clip-rule="evenodd" d="M19.9353 0.0381639L11.1932 18.702H16.9123C18.5872 18.702 19.9353 17.4425 19.9353 15.8776V0.0381639ZM19.9353 0.0381639H3.02296C1.34807 0.0381639 0 1.29769 0 2.86255V8.24414L19.9353 0.0381639ZM0 8.35865V16.2975L6.25021 10.496L0 8.35865ZM0 16.3356V18.6638H2.53275L0 16.3356ZM2.61445 18.702H11.1115L8.90553 12.8242L2.61445 18.702ZM36.3166 3.47323C36.3166 3.01522 35.9489 2.82438 35.2136 2.82438H33.3345H31.4553H28.3506V0H35.2545C38.0732 0 39.4621 1.22135 39.4621 3.70223V4.54191C39.4621 7.02279 38.0732 8.24414 35.2545 8.24414H31.4553V11.9845H28.3506V5.41976H31.4553H33.3345H35.2136C35.9489 5.41976 36.3166 5.19076 36.3166 4.77092V3.47323ZM140.242 18.7402H140.65V15.9921C140.65 15.8013 140.609 15.4959 140.609 15.4959C140.609 15.4959 140.814 15.8394 140.936 15.9921L143.02 18.7402H143.428V14.9234H143.02V17.6715C143.02 17.8623 143.06 18.1677 143.06 18.1677C143.06 18.1677 142.856 17.8241 142.734 17.6715L140.65 14.9234H140.242V18.7402ZM130.151 16.7936C130.151 17.9005 131.05 18.7783 132.235 18.7783C133.42 18.7783 134.318 17.9005 134.318 16.7936C134.318 15.6868 133.42 14.8471 132.235 14.8471C131.05 14.8853 130.151 15.7249 130.151 16.7936ZM130.601 16.7936C130.601 15.8776 131.295 15.1906 132.276 15.1906C133.215 15.1906 133.951 15.8776 133.951 16.7936C133.951 17.7097 133.256 18.4348 132.276 18.4348C131.295 18.4348 130.601 17.7478 130.601 16.7936ZM123.86 18.7402H124.269V14.9234H123.86V18.7402ZM116.303 18.7402H116.711V15.2669H118.182V14.9234H114.873V15.2669H116.344V18.7402H116.303ZM105.886 16.7936C105.886 17.9005 106.703 18.7783 107.928 18.7783C108.664 18.7783 109.154 18.5112 109.481 18.2058L109.236 17.9387C108.868 18.244 108.419 18.4348 107.928 18.4348C106.907 18.4348 106.254 17.7097 106.254 16.7936C106.254 15.9158 106.907 15.1906 107.888 15.1906C108.337 15.1906 108.827 15.3433 109.113 15.6104L109.317 15.3433C108.909 14.9998 108.378 14.8471 107.847 14.8471C106.744 14.8853 105.886 15.7249 105.886 16.7936ZM96.9396 17.4043C96.9396 18.244 97.5932 18.7783 98.4919 18.7783C99.4315 18.7783 100.044 18.244 100.044 17.4043V14.9234H99.6357V17.4043C99.6357 18.0532 99.1864 18.473 98.4919 18.473C97.7974 18.473 97.3481 18.0913 97.3481 17.4425V14.9616H96.9396V17.4043ZM87.7072 18.7402H89.0145C90.24 18.7402 91.057 18.0532 91.057 16.8318C91.057 15.6486 90.24 14.9234 89.0145 14.9234H87.7072V18.7402ZM88.0749 18.3967V15.2669H88.9327C89.954 15.2669 90.6077 15.8013 90.6077 16.8318C90.6077 17.8623 89.954 18.3967 88.9327 18.3967H88.0749ZM77.617 16.7936C77.617 17.9005 78.5157 18.7783 79.7004 18.7783C80.8851 18.7783 81.7838 17.9005 81.7838 16.7936C81.7838 15.6868 80.8851 14.8471 79.7004 14.8471C78.5157 14.8853 77.617 15.7249 77.617 16.7936ZM78.0664 16.7936C78.0664 15.8776 78.7608 15.1906 79.7413 15.1906C80.6808 15.1906 81.4162 15.8776 81.4162 16.7936C81.4162 17.7097 80.7217 18.4348 79.7413 18.4348C78.7608 18.4348 78.0664 17.7478 78.0664 16.7936ZM69.3242 18.7402H69.7327V17.1371H70.754L71.6527 18.7402H72.1021L71.2034 17.2135C71.1217 17.099 71.0808 17.0608 71.0808 17.0608C71.5302 16.9463 71.857 16.5265 71.857 15.9921C71.857 15.5341 71.6119 15.1906 71.2442 15.0379C71.0808 14.9616 70.8766 14.9234 70.5089 14.9234H69.2834V18.7402H69.3242ZM69.7327 16.7936V15.2669H70.5498C70.8357 15.2669 70.9583 15.3051 71.0808 15.3433C71.3668 15.4578 71.4894 15.7249 71.4894 15.9921C71.4894 16.4501 71.1626 16.7936 70.6723 16.7936H69.7327ZM60.8681 18.7402H61.2766V17.2516H62.2979C63.0332 17.2516 63.5642 16.7936 63.5642 16.1066C63.5642 15.4196 63.0332 14.9616 62.2979 14.9616H60.9089V18.7402H60.8681ZM61.2357 16.9081V15.2669H62.2162C62.7472 15.2669 63.1149 15.5723 63.1149 16.0685C63.1149 16.6028 62.7472 16.9081 62.2162 16.9081H61.2357ZM47.9183 18.7402H49.3481C50.0425 18.7402 50.5736 18.3585 50.5736 17.6715C50.5736 17.2135 50.2876 16.8318 49.8791 16.7173C50.2059 16.5646 50.4102 16.2975 50.4102 15.8776C50.4102 15.2669 49.9608 14.9234 49.3072 14.9234H47.9183V18.7402ZM48.3268 16.6028V15.3051H49.3072C49.7566 15.3051 50.0017 15.5723 50.0017 15.9539C50.0017 16.3356 49.7157 16.6028 49.3072 16.6028H48.3268ZM48.3268 18.3967V16.9081H49.3481C49.8383 16.9081 50.1651 17.2135 50.1651 17.6715C50.1651 18.1295 49.8383 18.3967 49.3481 18.3967H48.3268ZM39.6664 18.7402H42.0766V18.3967H40.0749V16.9845H41.6272V16.641H40.0749V15.2669H41.954V14.9234H39.6664V18.7402ZM29.9847 18.7402H30.4749L31.2511 16.0685C31.3328 15.8394 31.4145 15.4959 31.4145 15.4959C31.4145 15.4959 31.4962 15.8394 31.5779 16.0685L32.354 18.7402H32.8442L33.9472 14.9234H33.5387L32.7217 17.8623C32.6808 18.0532 32.64 18.2822 32.64 18.2822C32.64 18.2822 32.5991 18.0913 32.5583 17.8623L31.7004 14.9234H31.3327L30.4749 17.8623C30.3932 18.0532 30.3523 18.2822 30.3523 18.2822C30.3523 18.2822 30.3115 18.0532 30.2706 17.8623L29.4944 14.9234H29.0859L29.9847 18.7402ZM52.7387 11.9464L57.1098 0H60.0511L64.4221 11.9464H59.2749V9.58L61.3583 10.6105L58.6621 3.43506L55.966 10.6105L58.0494 9.61817V11.9464H52.7387ZM132.317 11.9464L136.688 0H139.629L144 11.9464H138.853V9.58L140.936 10.6105L138.24 3.43506L135.544 10.6105L137.627 9.61817V11.9464H132.317ZM128.354 11.9464V1.37402L131.459 0V11.9464H128.354ZM122.349 0C125.454 0 127.006 1.56486 127.006 4.73275V7.21363C127.006 10.3815 125.454 11.9464 122.349 11.9464H115.894V0H122.349ZM122.798 2.82438H118.999V9.12199H122.798C123.534 9.12199 123.901 8.62582 123.901 7.63347V4.31291C123.901 3.32055 123.534 2.82438 122.798 2.82438ZM108.337 7.40446V9.16016H114.546V11.9845H105.232V0.0381639H114.587V2.86255H108.378V4.61825H113.729V7.44263H108.337V7.40446ZM92.1191 3.09155V11.9464H89.0145V0H94.08L96.3268 8.24414L98.3693 0H103.68V11.9464H100.575V3.09155L97.8791 11.9464H94.8561L92.1191 3.09155ZM84.3166 11.9464H81.2119V2.82438H78.1072V0H87.4621V2.82438H84.3574V11.9464H84.3166ZM68.5072 3.70223V11.9845H65.3208V0.0381639H70.3047L73.5728 8.32048V0.0381639H76.7591V11.9845H71.7753L68.5072 3.70223ZM47.6732 8.24414H43.874V11.9845H40.7694V5.41976H43.874H46.7745H47.6323C48.3676 5.41976 48.7353 5.19076 48.7353 4.77092V3.51139C48.7353 3.05339 48.3676 2.86255 47.6323 2.86255H46.8153H43.9149H40.8102V0.0381639H47.714C50.5328 0.0381639 51.9217 1.25952 51.9217 3.7404V4.58008C51.9217 5.57243 51.7174 6.33578 51.3089 6.87012C51.7174 7.40447 51.9217 8.16781 51.9217 9.16016V12.0227H48.817V8.93116C48.7762 8.43498 48.4085 8.24414 47.6732 8.24414Z" fill="white"/>
</svg>
