<svg width="130" height="75" viewBox="0 0 130 75" fill="none" xmlns="http://www.w3.org/2000/svg">
<path d="M37.1806 7L55 32.0535L49.0818 40.3125L37.6441 26.1799L16.8494 53H2L37.1806 7Z" fill="#124D9B"/>
<path d="M92.8194 7L74 32L81 41.5L92.3559 26.1799L113.151 53H128L92.8194 7Z" fill="#124D9B"/>
<path d="M64.0001 0L104.703 53H89L64 20.5L40 53H23L64.0001 0Z" fill="#EB9423"/>
<path d="M1.53003 74V61.862H11.135V74H8.56803V64.004H4.09703V74H1.53003ZM21.524 74H14.537V61.862H21.524V63.97H17.104V66.639H21.218V68.747H17.104V71.875H21.524V74ZM29.0647 74H26.4977V64.004H23.1997V61.862H32.3627V64.004H29.0647V74ZM38.4504 61.862C40.0144 61.862 41.1534 62.202 41.8674 62.882C42.5927 63.5507 42.9554 64.4743 42.9554 65.653C42.9554 66.1857 42.8761 66.6957 42.7174 67.183C42.5587 67.659 42.2924 68.0897 41.9184 68.475C41.5557 68.849 41.0741 69.1437 40.4734 69.359C39.8727 69.5743 39.1304 69.682 38.2464 69.682H37.1414V74H34.5744V61.862H38.4504ZM38.3144 63.97H37.1414V67.574H37.9914C38.4787 67.574 38.8981 67.5117 39.2494 67.387C39.6007 67.2623 39.8727 67.064 40.0654 66.792C40.2581 66.52 40.3544 66.1687 40.3544 65.738C40.3544 65.1373 40.1901 64.6953 39.8614 64.412C39.5327 64.1173 39.0171 63.97 38.3144 63.97ZM56.6052 67.914C56.6052 68.8547 56.4862 69.7103 56.2482 70.481C56.0216 71.2403 55.6702 71.8977 55.1942 72.453C54.7296 73.0083 54.1289 73.4333 53.3922 73.728C52.6669 74.0227 51.8112 74.17 50.8252 74.17C49.8392 74.17 48.9779 74.0227 48.2412 73.728C47.5159 73.422 46.9152 72.997 46.4392 72.453C45.9746 71.8977 45.6232 71.2347 45.3852 70.464C45.1586 69.6933 45.0452 68.8377 45.0452 67.897C45.0452 66.639 45.2492 65.5453 45.6572 64.616C46.0766 63.6867 46.7112 62.967 47.5612 62.457C48.4226 61.9357 49.5162 61.675 50.8422 61.675C52.1569 61.675 53.2392 61.9357 54.0892 62.457C54.9392 62.967 55.5682 63.6923 55.9762 64.633C56.3956 65.5623 56.6052 66.656 56.6052 67.914ZM47.7482 67.914C47.7482 68.764 47.8559 69.495 48.0712 70.107C48.2866 70.719 48.6209 71.1893 49.0742 71.518C49.5276 71.8467 50.1112 72.011 50.8252 72.011C51.5619 72.011 52.1512 71.8467 52.5932 71.518C53.0466 71.1893 53.3752 70.719 53.5792 70.107C53.7946 69.495 53.9022 68.764 53.9022 67.914C53.9022 66.6333 53.6642 65.6303 53.1882 64.905C52.7122 64.1797 51.9302 63.817 50.8422 63.817C50.1169 63.817 49.5276 63.9813 49.0742 64.31C48.6209 64.6387 48.2866 65.109 48.0712 65.721C47.8559 66.333 47.7482 67.064 47.7482 67.914ZM64.6105 63.834C64.1232 63.834 63.6868 63.9303 63.3015 64.123C62.9275 64.3157 62.6102 64.5933 62.3495 64.956C62.0888 65.3073 61.8905 65.738 61.7545 66.248C61.6298 66.758 61.5675 67.3303 61.5675 67.965C61.5675 68.8263 61.6695 69.563 61.8735 70.175C62.0888 70.7757 62.4232 71.2347 62.8765 71.552C63.3298 71.8693 63.9078 72.028 64.6105 72.028C65.1092 72.028 65.6022 71.9713 66.0895 71.858C66.5882 71.7447 67.1265 71.586 67.7045 71.382V73.541C67.1718 73.7563 66.6448 73.915 66.1235 74.017C65.6022 74.119 65.0185 74.17 64.3725 74.17C63.1258 74.17 62.0945 73.915 61.2785 73.405C60.4738 72.8837 59.8788 72.1583 59.4935 71.229C59.1082 70.2883 58.9155 69.1947 58.9155 67.948C58.9155 67.03 59.0402 66.1913 59.2895 65.432C59.5388 64.6613 59.9015 63.9983 60.3775 63.443C60.8648 62.8877 61.4598 62.457 62.1625 62.151C62.8765 61.845 63.6925 61.692 64.6105 61.692C65.2112 61.692 65.8118 61.7713 66.4125 61.93C67.0245 62.0773 67.6082 62.2813 68.1635 62.542L67.3305 64.633C66.8772 64.4177 66.4182 64.2307 65.9535 64.072C65.5002 63.9133 65.0525 63.834 64.6105 63.834ZM79.3243 74H76.7573V64.004H73.4593V61.862H82.6223V64.004H79.3243V74ZM88.71 61.862C90.274 61.862 91.413 62.202 92.127 62.882C92.8523 63.5507 93.215 64.4743 93.215 65.653C93.215 66.1857 93.1357 66.6957 92.977 67.183C92.8183 67.659 92.552 68.0897 92.178 68.475C91.8153 68.849 91.3337 69.1437 90.733 69.359C90.1323 69.5743 89.39 69.682 88.506 69.682H87.401V74H84.834V61.862H88.71ZM88.574 63.97H87.401V67.574H88.251C88.7383 67.574 89.1577 67.5117 89.509 67.387C89.8603 67.2623 90.1323 67.064 90.325 66.792C90.5177 66.52 90.614 66.1687 90.614 65.738C90.614 65.1373 90.4497 64.6953 90.121 64.412C89.7923 64.1173 89.2767 63.97 88.574 63.97ZM102.431 74L101.547 71.11H97.1271L96.2431 74H93.4721L97.7561 61.811H100.901L105.202 74H102.431ZM100.051 66.129C99.9944 65.9363 99.9208 65.6927 99.8301 65.398C99.7394 65.1033 99.6488 64.803 99.5581 64.497C99.4674 64.191 99.3938 63.9247 99.3371 63.698C99.2804 63.9247 99.2011 64.208 99.0991 64.548C99.0084 64.8767 98.9178 65.194 98.8271 65.5C98.7478 65.7947 98.6854 66.0043 98.6401 66.129L97.7731 68.951H100.935L100.051 66.129ZM117.024 74H114.457V68.764H109.646V74H107.079V61.862H109.646V66.622H114.457V61.862H117.024V74ZM125.569 63.834C125.082 63.834 124.646 63.9303 124.26 64.123C123.886 64.3157 123.569 64.5933 123.308 64.956C123.048 65.3073 122.849 65.738 122.713 66.248C122.589 66.758 122.526 67.3303 122.526 67.965C122.526 68.8263 122.628 69.563 122.832 70.175C123.048 70.7757 123.382 71.2347 123.835 71.552C124.289 71.8693 124.867 72.028 125.569 72.028C126.068 72.028 126.561 71.9713 127.048 71.858C127.547 71.7447 128.085 71.586 128.663 71.382V73.541C128.131 73.7563 127.604 73.915 127.082 74.017C126.561 74.119 125.977 74.17 125.331 74.17C124.085 74.17 123.053 73.915 122.237 73.405C121.433 72.8837 120.838 72.1583 120.452 71.229C120.067 70.2883 119.874 69.1947 119.874 67.948C119.874 67.03 119.999 66.1913 120.248 65.432C120.498 64.6613 120.86 63.9983 121.336 63.443C121.824 62.8877 122.419 62.457 123.121 62.151C123.835 61.845 124.651 61.692 125.569 61.692C126.17 61.692 126.771 61.7713 127.371 61.93C127.983 62.0773 128.567 62.2813 129.122 62.542L128.289 64.633C127.836 64.4177 127.377 64.2307 126.912 64.072C126.459 63.9133 126.011 63.834 125.569 63.834Z" fill="#124D9B"/>
</svg>
