<svg width="29" height="31" fill="none" xmlns="http://www.w3.org/2000/svg"><path d="M13.043 1.513a3.028 3.028 0 0 1 2.914 0L27.229 7.7c.234.128.428.316.564.544.136.228.207.487.207.752v12.208c0 .529-.143 1.048-.415 1.503a2.984 2.984 0 0 1-1.129 1.088l-10.5 5.767a3.028 3.028 0 0 1-2.912 0l-10.5-5.767a2.984 2.984 0 0 1-1.129-1.087A2.938 2.938 0 0 1 1 21.206V8.996c0-.264.071-.523.207-.751.136-.228.33-.416.564-.544l11.274-6.188h-.002Z" stroke="#fff" stroke-width="2" stroke-linecap="round" stroke-linejoin="round"/><path d="m1 8.125 13.5 7.412m0 0L28 8.125m-13.5 7.412v14.825" stroke="#fff" stroke-width="2" stroke-linejoin="round"/><path d="m7.75 11.831 13.5-7.412M5.5 16.024l4.5 2.478" stroke="#fff" stroke-width="2" stroke-linecap="round" stroke-linejoin="round"/></svg>