<svg width="20" height="20" fill="none" xmlns="http://www.w3.org/2000/svg"><g clip-path="url(#a)"><path d="M9.499.003c-1.605.02-5.056.283-6.986 2.054C1.078 3.479.576 5.583.518 8.183.468 10.774.41 15.641 5.1 16.966v2.018s-.03.807.504.973c.658.208 1.032-.413 1.657-1.08l1.166-1.319c3.209.267 5.667-.348 5.95-.44.651-.207 4.32-.676 4.919-5.543.615-5.026-.3-8.193-1.95-9.625h-.01c-.498-.46-2.5-1.918-6.973-1.934 0 0-.332-.023-.865-.013Zm.055 1.413c.455-.003.732.017.732.017 3.786.01 5.593 1.149 6.019 1.533 1.39 1.191 2.106 4.046 1.582 8.242-.498 4.069-3.473 4.326-4.024 4.502-.234.075-2.4.609-5.127.433 0 0-2.031 2.451-2.666 3.083-.1.11-.218.143-.293.127-.108-.027-.14-.16-.134-.342l.02-3.35c-3.979-1.1-3.744-5.25-3.702-7.418.049-2.169.456-3.942 1.667-5.144 1.63-1.474 4.56-1.673 5.925-1.683Zm.3 2.168a.248.248 0 0 0-.25.247c0 .14.113.251.25.251a4.696 4.696 0 0 1 3.36 1.325c.907.882 1.35 2.067 1.367 3.616 0 .137.11.25.25.25v-.01a.25.25 0 0 0 .25-.247 5.384 5.384 0 0 0-1.51-3.968c-.99-.967-2.243-1.465-3.717-1.465Zm-3.295.573a.783.783 0 0 0-.51.1h-.014c-.357.21-.68.475-.954.785-.228.264-.352.53-.384.788-.02.153-.006.306.04.452l.016.01c.256.755.592 1.481 1.002 2.165.528.96 1.178 1.849 1.934 2.643l.022.033.036.026.022.026.027.023a12.92 12.92 0 0 0 2.65 1.943c1.1.598 1.767.882 2.168 1v.005c.117.036.224.052.332.052.341-.025.664-.163.918-.393.308-.275.57-.598.775-.957v-.007c.192-.36.127-.703-.15-.934a11.536 11.536 0 0 0-1.79-1.286c-.427-.23-.86-.09-1.036.143l-.374.472c-.192.235-.54.202-.54.202l-.01.006c-2.601-.664-3.295-3.297-3.295-3.297s-.033-.358.208-.54l.469-.378c.224-.183.38-.615.14-1.042a11.245 11.245 0 0 0-1.283-1.79.713.713 0 0 0-.42-.251l.001.001Zm3.727.742c-.332 0-.332.502.003.502a3.14 3.14 0 0 1 2.207.957 2.913 2.913 0 0 1 .749 2.141.251.251 0 0 0 .25.248l.01.013a.253.253 0 0 0 .251-.25c.023-.994-.286-1.827-.892-2.494-.608-.668-1.458-1.042-2.542-1.117h-.036Zm.41 1.348c-.341-.01-.354.501-.015.511.823.043 1.223.459 1.276 1.315a.249.249 0 0 0 .247.245h.01a.252.252 0 0 0 .241-.267c-.059-1.117-.668-1.745-1.748-1.803h-.01v-.001Z" fill="#fff"/></g><defs><clipPath id="a"><path fill="#fff" d="M0 0h20v20H0z"/></clipPath></defs></svg>