<svg width="20" height="21" fill="none" xmlns="http://www.w3.org/2000/svg"><path d="M.084 9.954c-.001 1.755.457 3.468 1.329 4.977L0 20.09l5.279-1.384a9.955 9.955 0 0 0 4.759 1.211h.004c5.488 0 9.956-4.466 9.958-9.955a9.895 9.895 0 0 0-2.914-7.043A9.896 9.896 0 0 0 10.042 0C4.552 0 .086 4.466.084 9.954Zm3.143 4.717-.197-.313a8.252 8.252 0 0 1-1.265-4.403c.002-4.562 3.715-8.274 8.28-8.274 2.21.001 4.289.863 5.852 2.427a8.225 8.225 0 0 1 2.422 5.854c-.002 4.562-3.715 8.274-8.277 8.274h-.003c-1.486 0-2.943-.4-4.213-1.154l-.302-.179-3.133.822.836-3.054Z" fill="url(#a)"/><path d="M7.553 5.793c-.186-.414-.383-.423-.56-.43-.145-.006-.311-.006-.477-.006a.914.914 0 0 0-.663.311c-.228.25-.871.851-.871 2.075 0 1.225.892 2.408 1.016 2.574.124.166 1.721 2.758 4.25 3.756 2.102.828 2.53.664 2.986.622.456-.041 1.472-.602 1.68-1.183.207-.58.207-1.079.145-1.183-.063-.103-.228-.166-.477-.29-.25-.124-1.473-.726-1.7-.81-.229-.082-.394-.124-.56.125-.166.25-.643.81-.788.975-.145.167-.29.187-.54.063-.248-.125-1.05-.387-2-1.235-.74-.66-1.24-1.474-1.384-1.723-.146-.249-.016-.384.109-.508.112-.111.249-.29.373-.435.124-.146.166-.25.249-.415.083-.166.041-.312-.02-.436-.063-.125-.547-1.355-.768-1.847" fill="#fff"/><defs><linearGradient id="a" x1="10" y1="20.09" x2="10" y2="0" gradientUnits="userSpaceOnUse"><stop stop-color="#F9F9F9"/><stop offset="1" stop-color="#fff"/></linearGradient></defs></svg>